HIERARCHY
ROOT Hips
{
	OFFSET 53.694302 15.443891 57.952705
	CHANNELS 6 Xposition Yposition Zposition Xrotation Yrotation Zrotation
	JOINT spine
	{
		OFFSET 0.000000 -0.429886 7.475594
		CHANNELS 3 Xrotation Yrotation Zrotation
		JOINT spine1
		{
			OFFSET 0.000000 -0.000002 9.923012
			CHANNELS 3 Xrotation Yrotation Zrotation
			JOINT spine2
			{
				OFFSET 0.000000 -0.000001 9.508041
				CHANNELS 3 Xrotation Yrotation Zrotation
				JOINT Neck
				{
					OFFSET 0.000000 -1.163845 24.411102
					CHANNELS 3 Xrotation Yrotation Zrotation
					JOINT Head
					{
						OFFSET 0.000000 -0.000001 7.375229
						CHANNELS 3 Xrotation Yrotation Zrotation
						End Site
						{
							OFFSET 0.000000 5.887408 17.852196
						}
					}
				}
				JOINT RightShoulder
				{
					OFFSET -4.003559 0.557467 10.267899
					CHANNELS 3 Xrotation Yrotation Zrotation
					JOINT RightArm
					{
						OFFSET 0.000000 -0.000003 13.467300
						CHANNELS 3 Xrotation Yrotation Zrotation
						JOINT RightArmRoll
						{
							OFFSET 0.000000 -0.000001 6.798576
							CHANNELS 3 Xrotation Yrotation Zrotation
							JOINT RightForeArm
							{
								OFFSET 0.000000 -0.000003 19.801804
								CHANNELS 3 Xrotation Yrotation Zrotation
								JOINT RightForeArmRoll
								{
									OFFSET 0.000000 -0.000001 7.629044
									CHANNELS 3 Xrotation Yrotation Zrotation
									JOINT RightHand
									{
										OFFSET 0.000000 -0.000003 15.309799
										CHANNELS 3 Xrotation Yrotation Zrotation
										End Site
										{
											OFFSET 0.000000 0.000000 0.100006
										}
									}
								}
							}
						}
					}
				}
				JOINT LeftShoulder
				{
					OFFSET 4.003559 0.557467 10.267899
					CHANNELS 3 Xrotation Yrotation Zrotation
					JOINT LeftArm
					{
						OFFSET 0.000000 -0.000003 13.467300
						CHANNELS 3 Xrotation Yrotation Zrotation
						JOINT LeftArmRoll
						{
							OFFSET 0.000000 -0.000001 6.798576
							CHANNELS 3 Xrotation Yrotation Zrotation
							JOINT LeftForeArm
							{
								OFFSET 0.000000 -0.000003 19.801804
								CHANNELS 3 Xrotation Yrotation Zrotation
								JOINT LeftForeArmRoll
								{
									OFFSET 0.000000 -0.000001 7.629044
									CHANNELS 3 Xrotation Yrotation Zrotation
									JOINT LeftHand
									{
										OFFSET 0.000000 -0.000003 15.309799
										CHANNELS 3 Xrotation Yrotation Zrotation
										End Site
										{
											OFFSET 0.000000 0.000000 0.100006
										}
									}
								}
							}
						}
					}
				}
			}
		}
	}
	JOINT RightUpLeg
	{
		OFFSET -6.626091 1.019269 -1.215050
		CHANNELS 3 Xrotation Yrotation Zrotation
		JOINT RightUpLegRoll
		{
			OFFSET 0.000000 -0.000002 17.951698
			CHANNELS 3 Xrotation Yrotation Zrotation
			JOINT RightLeg
			{
				OFFSET 0.000000 0.000004 -22.230396
				CHANNELS 3 Xrotation Yrotation Zrotation
				JOINT RightLegRoll
				{
					OFFSET 0.000000 -0.000004 22.303196
					CHANNELS 3 Xrotation Yrotation Zrotation
					JOINT RightFoot
					{
						OFFSET 0.000000 -0.000004 18.563599
						CHANNELS 3 Xrotation Yrotation Zrotation
						JOINT RightToeBase
						{
							OFFSET 0.000000 -0.000002 15.518303
							CHANNELS 3 Xrotation Yrotation Zrotation
							End Site
							{
								OFFSET 0.006577 0.866261 7.515388
							}
						}
					}
				}
			}
		}
	}
	JOINT LeftUpLeg
	{
		OFFSET 6.626091 1.019269 -1.215050
		CHANNELS 3 Xrotation Yrotation Zrotation
		JOINT LeftUpLegRoll
		{
			OFFSET 0.000000 -0.000002 17.951797
			CHANNELS 3 Xrotation Yrotation Zrotation
			JOINT LeftLeg
			{
				OFFSET 0.000000 -0.000004 22.230301
				CHANNELS 3 Xrotation Yrotation Zrotation
				JOINT LeftLegRoll
				{
					OFFSET 0.000000 -0.000004 22.509300
					CHANNELS 3 Xrotation Yrotation Zrotation
					JOINT LeftFoot
					{
						OFFSET 0.000000 -0.000004 18.357506
						CHANNELS 3 Xrotation Yrotation Zrotation
						JOINT LeftToeBase
						{
							OFFSET 0.000000 -0.000002 15.518295
							CHANNELS 3 Xrotation Yrotation Zrotation
							End Site
							{
								OFFSET -0.029476 0.866262 7.515366
							}
						}
					}
				}
			}
		}
	}
}
MOTION
Frames: 9
Frame Time: 0.041667
58.278194 -28.795116 94.088402 -3.845464 1.778539 1.379529 -1.783168 -0.125459 0.110437 0.436718 -0.254256 0.218174 2.081790 -0.251629 0.221212 25.511045 2.491562 -1.486785 -5.090555 -7.218639 -0.902781 -7.236403 -74.278601 -9.648196 -67.588540 -96.874677 -41.332050 0.000000 0.000014 -0.000000 0.201200 -4.164725 -1.105108 0.000003 0.000001 -3.008780 -5.000178 -7.999519 0.000064 -10.928780 70.514067 13.483073 -19.953984 101.330098 -10.173108 -0.000001 -0.000001 0.000004 0.854438 -2.295235 0.815789 -0.000000 0.000000 3.007075 -5.000174 8.000020 -0.000006 2.276637 178.122495 -1.335879 -179.999991 0.000005 -1.069001 173.149557 -2.811810 -0.485665 -0.000005 0.000004 0.096140 69.946615 6.836839 2.227797 25.456941 -7.348888 0.000005 2.223675 178.347249 2.352362 -0.000005 -0.000004 -1.062730 -6.527433 2.366914 0.331827 -0.000005 0.000000 -0.080019 69.193047 -6.844214 -2.223125 25.456926 7.363197 0.000001 
58.279896 -28.766315 94.090897 -3.839184 1.779819 1.375068 -1.777637 -0.125288 0.111183 0.447785 -0.253848 0.219678 2.092859 -0.251208 0.222717 25.532514 2.513026 -1.474418 -5.096485 -7.210584 -0.889411 -7.206067 -74.277187 -9.615241 -67.606148 -96.951564 -41.285816 0.000000 0.000016 0.000000 0.188892 -4.108129 -1.112978 0.000002 0.000001 -3.009451 -5.000178 -7.999518 0.000063 -10.956304 70.500933 13.513058 -20.255915 101.289868 -9.883040 -0.000000 -0.000000 0.000006 0.868593 -2.301745 0.815786 0.000000 0.000002 3.007084 -5.000174 8.000019 -0.000007 2.260751 178.120460 -1.343887 -179.999991 0.000005 -1.069002 173.149913 -2.803878 -0.485693 -0.000005 0.000004 0.096140 69.947476 6.836866 2.227648 25.456943 -7.348890 0.000005 2.198253 178.347222 2.352155 -0.000005 -0.000004 -1.062740 -6.543109 2.369324 0.332228 -0.000005 0.000000 -0.080019 69.191893 -6.844223 -2.223098 25.456924 7.363197 0.000002 
58.287697 -28.752319 94.096695 -3.832847 1.781219 1.371145 -1.772116 -0.125082 0.111898 0.458829 -0.253371 0.221117 2.103899 -0.250717 0.224157 25.552685 2.534077 -1.461925 -5.102412 -7.201962 -0.875968 -7.177273 -74.276313 -9.584017 -67.627035 -97.027181 -41.241669 -0.000001 0.000015 -0.000000 0.176145 -4.051053 -1.120886 0.000003 0.000001 -3.010112 -5.000178 -7.999518 0.000063 -10.984280 70.486746 13.543518 -20.554302 101.250615 -9.596812 -0.000001 -0.000001 0.000004 0.883359 -2.308646 0.815771 -0.000000 0.000001 3.007077 -5.000174 8.000020 -0.000007 2.244956 178.117455 -1.352106 -179.999991 0.000005 -1.069002 173.150200 -2.795932 -0.485723 -0.000005 0.000004 0.096140 69.948527 6.836864 2.227682 25.456945 -7.348889 0.000005 2.172643 178.348192 2.351773 -0.000005 -0.000004 -1.062770 -6.559035 2.371842 0.332610 -0.000005 0.000001 -0.080019 69.190417 -6.844251 -2.223092 25.456928 7.363196 0.000002 
58.307396 -28.700317 94.097000 -3.826445 1.782700 1.367584 -1.766605 -0.124853 0.112589 0.469855 -0.252843 0.222512 2.114929 -0.250176 0.225553 25.572044 2.554830 -1.449349 -5.108357 -7.192952 -0.862477 -7.149620 -74.275814 -9.554050 -67.649096 -97.101951 -41.197860 0.000000 0.000014 0.000000 0.163097 -3.993627 -1.128823 0.000003 0.000001 -3.010749 -5.000179 -7.999519 0.000061 -11.012549 70.471822 13.574265 -20.850264 101.212393 -9.313265 -0.000001 -0.000001 0.000004 0.898549 -2.315816 0.815769 -0.000001 0.000000 3.007077 -5.000174 8.000020 -0.000008 2.229213 178.114422 -1.360455 -179.999991 0.000005 -1.069002 173.150404 -2.787984 -0.485756 -0.000005 0.000004 0.096140 69.949695 6.836866 2.227612 25.456941 -7.348888 0.000005 2.146903 178.348165 2.351194 -0.000005 -0.000004 -1.062800 -6.575121 2.374457 0.332983 -0.000005 0.000001 -0.080019 69.188826 -6.844239 -2.223088 25.456926 7.363196 0.000002 
58.316597 -28.687920 94.097603 -3.820035 1.784219 1.364235 -1.761092 -0.124610 0.113267 0.480872 -0.252286 0.223880 2.125949 -0.249608 0.226923 25.590911 2.575415 -1.436727 -5.114312 -7.183707 -0.848957 -7.122576 -74.275596 -9.524773 -67.673002 -97.176107 -41.155295 -0.000001 0.000014 0.000000 0.149873 -3.935999 -1.136762 0.000002 0.000001 -3.011389 -5.000177 -7.999518 0.000063 -11.041003 70.456482 13.605207 -21.144754 101.175298 -9.031361 -0.000001 -0.000001 0.000006 0.913983 -2.323155 0.815763 -0.000002 0.000000 3.007080 -5.000174 8.000019 -0.000011 2.213501 178.111403 -1.368875 -179.999991 0.000005 -1.069001 173.150582 -2.780051 -0.485793 -0.000005 0.000004 0.096140 69.950863 6.836868 2.227639 25.456940 -7.348889 0.000005 2.121093 178.348137 2.350528 -0.000005 -0.000004 -1.062840 -6.591308 2.377112 0.333349 -0.000005 0.000001 -0.080019 69.187139 -6.844220 -2.223192 25.456928 7.363196 0.000002 
58.311897 -28.703217 94.100006 -3.813608 1.785749 1.360936 -1.755586 -0.124364 0.113943 0.491887 -0.251722 0.225243 2.136960 -0.249032 0.228286 25.609574 2.595972 -1.424104 -5.120273 -7.174418 -0.835428 -7.095679 -74.275363 -9.495644 -67.697393 -97.250030 -41.113156 -0.000000 0.000014 -0.000000 0.136607 -3.878321 -1.144681 0.000002 0.000002 -3.012028 -5.000177 -7.999519 0.000062 -11.069448 70.441025 13.636134 -21.440751 101.138456 -8.747892 -0.000001 -0.000001 0.000001 0.929478 -2.330524 0.815762 -0.000000 0.000000 3.007080 -5.000174 8.000019 -0.000005 2.197803 178.108398 -1.377312 -179.999991 0.000005 -1.069002 173.150773 -2.771114 -0.485722 -0.000005 0.000004 0.096140 69.952134 6.836871 2.227560 25.456941 -7.348890 0.000005 2.095259 178.348110 2.349832 -0.000005 -0.000004 -1.062870 -6.607525 2.379786 0.333716 -0.000005 0.000000 -0.080019 69.185445 -6.844200 -2.223192 25.456926 7.363195 0.000002 
58.316696 -28.672218 94.098999 -3.807196 1.787270 1.357536 -1.750078 -0.124124 0.114625 0.502907 -0.251170 0.226618 2.147979 -0.248470 0.229662 25.628552 2.616614 -1.411522 -5.126219 -7.165237 -0.821909 -7.068441 -74.274940 -9.466151 -67.721660 -97.324049 -41.070932 0.000000 0.000014 0.000001 0.123431 -3.820733 -1.152567 0.000003 0.000001 -3.012659 -5.000179 -7.999518 0.000061 -11.097761 70.425787 13.666925 -21.741361 101.101047 -8.459654 -0.000001 -0.000001 0.000005 0.944851 -2.337811 0.815768 -0.000002 0.000001 3.007082 -5.000174 8.000019 -0.000005 2.182077 178.105379 -1.385707 -179.999991 0.000005 -1.069001 173.150965 -2.763167 -0.485757 -0.000005 0.000004 0.096140 69.953302 6.836874 2.227590 25.456943 -7.348890 0.000005 2.069459 178.348069 2.349187 -0.000005 -0.000004 -1.062910 -6.623692 2.382429 0.334087 -0.000005 0.000000 -0.080019 69.183765 -6.844216 -2.223100 25.456926 7.363196 0.000002 
58.318295 -28.681614 94.101196 -3.800814 1.788719 1.353873 -1.744563 -0.123900 0.115323 0.513938 -0.250655 0.228024 2.159010 -0.247941 0.231069 25.648134 2.637488 -1.399029 -5.132168 -7.156356 -0.808426 -7.040450 -74.274325 -9.435818 -67.745211 -97.398477 -41.028410 -0.000001 0.000015 0.000000 0.110479 -3.763394 -1.160382 0.000002 0.000001 -3.013309 -5.000177 -7.999518 0.000061 -11.125763 70.411054 13.697407 -22.045836 101.064089 -8.167434 -0.000001 -0.000001 0.000004 0.959922 -2.344911 0.815778 -0.000001 0.000001 3.007078 -5.000173 8.000018 -0.000008 2.166327 178.102360 -1.394010 -179.999991 0.000005 -1.069001 173.151197 -2.755234 -0.485791 -0.000005 0.000004 0.096140 69.954470 6.836875 2.227519 25.456945 -7.348889 0.000005 2.043762 178.348055 2.348658 -0.000005 -0.000004 -1.062940 -6.639729 2.385024 0.334469 -0.000005 0.000000 -0.080019 69.182180 -6.844239 -2.223100 25.456926 7.363196 0.000001 
58.320496 -28.659515 94.103104 -3.794495 1.790069 1.349784 -1.739046 -0.123704 0.116046 0.524988 -0.250195 0.229483 2.170060 -0.247468 0.232528 25.668734 2.658712 -1.386664 -5.138102 -7.147912 -0.794994 -7.011266 -74.273355 -9.404144 -67.768106 -97.473616 -40.986179 -0.000000 0.000015 0.000000 0.097877 -3.706434 -1.168126 0.000001 0.000002 -3.013968 -5.000178 -7.999518 0.000061 -11.153374 70.397162 13.727477 -22.357366 101.026749 -7.867858 -0.000002 -0.000001 0.000005 0.974504 -2.351690 0.815794 -0.000001 0.000000 3.007079 -5.000175 8.000020 -0.000004 2.150500 178.099341 -1.402178 -179.999991 0.000005 -1.069001 173.151484 -2.747287 -0.485820 -0.000005 0.000004 0.096140 69.955426 6.836870 2.227558 25.456947 -7.348889 0.000005 2.018208 178.349025 2.348329 -0.000005 -0.000004 -1.062960 -6.655584 2.387510 0.334867 -0.000005 0.000001 -0.080019 69.180903 -6.844207 -2.223174 25.456928 7.363197 0.000001 
